<svg width="1170" height="986" viewBox="0 0 1170 986" fill="none" xmlns="http://www.w3.org/2000/svg">
<mask id="mask0_44_2495" style="mask-type:alpha" maskUnits="userSpaceOnUse" x="-73" y="0" width="1243" height="986">
<rect x="-72.4209" width="1241.84" height="986" fill="#C4C4C4"/>
</mask>
<g mask="url(#mask0_44_2495)">
<path d="M1169.7 552.66H-163.361V740.121H1169.7V552.66Z" fill="#003E72"/>
<path d="M-205.23 760.871L-78.8396 890.178H211.684L-205.23 472.264V760.871Z" fill="#003E72"/>
<path d="M-243.511 332.502L140.369 729.129H361.699L-243.511 123.378V332.502Z" fill="#003E72"/>
<path d="M-188.605 533.828L21.1017 746.493H228.309L-188.605 328.537V533.828Z" fill="#23BCB5"/>
<path d="M-37.4722 460.639L102.874 602.402H309.957L-26.8494 263.596V367.45H-130.703L-37.4722 460.639Z" fill="#23BCB5"/>
<path d="M754.491 798.864H747.701C747.701 798.864 759.157 829.899 765.489 868.1C765.489 868.1 779.486 943.085 779.486 988.492H45.7613C45.7613 988.492 36.2632 869.308 52.8848 693.136C57.8004 640.688 90.8353 533.085 90.8353 533.085C99.7502 509.423 129.744 499.717 129.744 499.717C134.327 497.342 148.365 489.844 164.779 481.012C181.15 472.264 199.938 462.225 213.935 454.768C221.434 450.81 227.557 447.519 231.223 445.561C234.723 438.438 237.305 435.605 237.305 435.605C239.18 431.189 241.929 427.148 245.679 423.857L246.262 424.441L246.179 403.695L246.012 403.528C245.554 402.862 245.096 402.237 244.679 401.57L243.721 400.071C243.554 399.904 243.512 399.779 243.346 399.612C243.138 399.238 242.888 398.779 242.596 398.404C241.388 396.613 240.263 394.822 239.305 393.03C237.347 389.573 235.639 386.24 234.389 382.991C233.348 380.366 232.598 377.825 232.223 375.492C232.015 373.993 231.765 372.285 231.557 370.493C231.39 369.827 231.348 369.16 231.182 368.41C231.098 368.327 231.015 368.244 230.807 368.202C228.557 367.744 226.308 365.869 224.225 362.745C223.183 361.454 221.892 358.996 220.476 355.996C218.143 351.122 215.851 345.373 213.602 339.625C213.602 339.541 213.519 339.541 213.519 339.458V339.375C213.144 338.458 212.769 337.583 212.477 336.667C206.27 320.879 207.02 305.465 214.268 302.924C214.477 302.841 214.643 302.841 214.852 302.757C215.227 302.549 215.685 302.382 216.143 302.216C219.809 301.466 222.35 303.132 224.141 305.673C223.308 303.132 222.433 300.216 221.309 296.675C214.518 275.638 219.809 239.145 225.558 229.272C231.307 219.316 242.096 220.524 242.096 220.524C244.262 214.109 263.592 187.281 316.164 190.613C368.695 193.904 387.233 239.562 387.233 239.562C392.19 259.683 391.357 279.887 389.774 293.217C389.233 297.925 388.191 302.507 386.567 306.84C386.65 306.673 386.733 306.548 386.775 306.381C387.066 305.632 387.608 305.048 388.108 304.59L388.316 303.257C389.899 302.341 392.19 301.841 395.273 302.966C403.188 305.423 403.355 316.005 399.314 329.752C398.731 332.085 398.023 334.376 397.064 336.709C396.981 336.917 396.898 337.167 396.856 337.292C396.481 338.333 396.023 339.458 395.565 340.499C395.19 341.541 394.815 342.541 394.357 343.582C394.148 344.124 393.982 344.624 393.773 345.249C393.69 345.332 393.607 345.457 393.607 345.54C391.232 351.539 388.816 357.079 386.275 361.162C383.734 365.286 381.026 367.952 378.277 368.285C378.11 370.618 377.818 372.91 377.36 375.159C377.36 375.242 377.277 375.367 377.277 375.534C376.985 377.242 376.444 379.117 375.86 380.991V381.116C375.486 382.241 375.111 383.366 374.569 384.49C370.07 396.071 363.28 404.528 363.28 404.528V423.816C367.112 427.273 370.028 431.439 371.82 436.105C372.486 436.855 373.694 438.563 375.319 441.437C375.319 441.437 376.902 442.27 379.735 443.77C382.567 445.27 386.525 447.436 391.316 449.977C417.644 463.891 468.092 490.677 477.215 495.551C480.131 497.051 483.797 499.384 488.004 502.3L548.034 474.764C546.367 475.597 544.826 476.347 543.16 477.222L559.531 469.723C558.573 470.098 557.573 470.556 556.532 470.931L571.654 463.974L575.778 438.313C509.25 391.322 540.827 295.634 540.827 295.634C551.991 265.473 572.987 249.476 608.188 243.686C643.348 237.937 655.928 255.267 655.928 255.267C655.928 255.267 683.839 260.224 694.295 287.76C694.295 287.76 724.081 364.828 679.423 421.275L680.09 422.316C680.09 422.316 680.298 422.524 680.673 423.066C680.882 423.358 681.131 423.732 681.506 424.191C682.464 425.524 683.881 427.565 685.381 430.106C685.547 430.398 685.672 430.648 685.839 430.939C688.38 435.563 691.088 442.02 692.712 450.227C692.712 450.31 692.712 450.31 692.712 450.394C693.379 456.601 693.754 465.057 694.004 472.556V472.764C693.92 474.097 693.795 475.472 693.629 476.805C693.795 476.972 693.92 477.097 694.17 477.263C696.337 478.971 698.586 481.012 700.669 483.262L700.836 483.345L749.242 502.341C749.242 502.341 776.945 512.381 784.194 526.878C791.442 541.375 806.814 570.744 813.021 650.103C819.145 729.503 818.937 771.245 790.651 798.114C790.609 798.031 775.071 798.864 754.491 798.864Z" fill="white"/>
<path d="M265.256 234.484C265.256 234.484 240.303 235.442 238.345 256.146C236.429 276.809 242.344 283.266 242.344 283.266C242.344 283.266 227.847 301.22 234.429 320.05H228.139C228.139 320.05 227.139 299.971 216.058 302.387C204.977 304.803 209.393 329.506 213.434 339.546C217.475 349.585 221.599 359.625 224.098 362.791C226.639 365.957 231.18 368.54 231.18 368.54C231.18 368.54 233.138 386.078 243.594 400.158L246.052 403.741L246.135 424.487L286.169 469.061C286.169 469.061 303.957 462.437 322.536 469.061L363.153 423.862V404.616C363.153 404.616 377.858 386.703 378.358 366.79C378.358 366.79 384.857 366.249 393.688 345.295C402.478 324.34 405.936 306.428 395.23 303.012C395.23 303.012 388.815 301.803 386.648 306.428C384.482 311.093 380.733 321.883 380.733 321.883H374.192C374.192 321.883 380.441 283.182 369.152 256.146C369.152 256.146 356.571 246.481 356.321 234.484C356.321 234.484 340.866 252.48 305.498 245.148C305.498 245.148 314.205 251.814 321.87 252.189C321.87 252.189 310.872 256.396 295.75 252.314C280.67 248.231 265.256 234.484 265.256 234.484Z" fill="#FAC5C2"/>
<path d="M457.966 883.681L425.098 894.97C425.098 894.97 417.142 899.302 413.309 905.759C409.476 912.216 393.146 940.211 393.146 940.211L479.212 938.586C479.212 938.586 487.71 938.294 491.751 934.962C495.792 931.629 501.624 921.798 501.624 921.798L457.966 883.681Z" fill="#FAC5C2"/>
<path d="M643.932 291.217C643.932 291.217 631.018 317.545 601.274 323.294C571.53 329.042 559.45 335.166 558.158 343.956L558.033 349.663C558.033 349.663 553.117 344.706 547.994 348.497C542.87 352.288 542.87 361.411 545.911 368.576C548.952 375.741 560.074 389.863 560.074 389.863C560.074 389.863 562.241 409.068 578.321 425.314C578.321 425.314 576.779 457.225 571.114 468.472C571.114 468.472 568.323 484.927 575.446 501.09C575.446 501.09 595.401 512.13 619.104 511.005C642.849 509.88 661.095 500.591 661.095 500.591C661.095 500.591 669.177 480.678 668.219 466.473C668.219 466.473 655.097 439.27 658.929 425.356C658.929 425.356 679.3 404.569 678.508 388.405C678.508 388.405 693.172 378.407 693.755 363.702C694.339 348.997 685.091 344.956 681.05 348.538C681.05 348.538 680.55 334.333 668.511 326.21C656.471 317.961 644.099 301.006 643.932 291.217Z" fill="#FCD4D2"/>
<path d="M691.295 700.593L724.538 660.518C724.538 660.518 727.829 656.56 734.286 654.061C740.743 651.561 762.53 648.937 762.53 648.937L771.404 647.771C771.404 647.771 771.987 655.352 766.155 657.519C760.322 659.685 739.327 669.016 739.327 669.016L752.449 667.558H788.65C788.65 667.558 787.442 676.973 778.36 677.681C769.279 678.389 749.075 680.306 749.075 680.306L771.903 682.555L785.651 687.804C785.651 687.804 783.151 695.011 769.862 693.345C756.573 691.637 757.698 692.428 757.698 692.428L778.652 701.051C778.652 701.051 773.362 708.633 764.405 705.675C755.449 702.718 747.867 700.718 747.867 700.718L691.295 700.593Z" fill="#FCD4D2"/>
<path d="M277.129 476.012L295.667 503.798C295.667 503.798 284.752 554.08 284.336 566.744C283.919 579.408 276.337 879.971 276.337 879.971L304.332 915.756L332.326 879.971L324.244 564.911C324.244 564.911 319.703 523.086 312.83 505.298L332.326 476.595C332.326 476.595 350.822 494.842 354.696 505.298C354.696 505.298 341.491 656.6 340.949 667.973C340.408 679.346 339.741 704.174 339.783 711.839C339.824 719.504 343.74 984.367 343.74 984.367H264.715L267.881 790.615L268.755 694.926C268.755 694.926 265.215 627.44 261.965 591.905C258.716 556.371 254.092 505.298 254.092 505.298C254.092 505.298 263.84 484.219 277.129 476.012Z" fill="#6FB5E4"/>
<path d="M655.304 513.129C655.304 513.129 624.227 531.709 583.443 514.421C583.443 514.421 603.689 551.455 607.272 559.453C610.854 567.452 621.269 591.905 621.269 591.905C621.269 591.905 632.725 542.582 655.304 513.129Z" fill="#6FB5E4"/>
<path d="M368.779 368.536C362.405 377.035 352.074 387.199 352.074 387.199C352.074 387.199 350.366 379.909 343.534 375.868C336.702 371.786 314.707 368.536 314.707 368.536C314.707 368.536 309.125 373.535 304.584 373.535C300.043 373.535 294.128 369.869 294.128 369.869C294.128 369.869 274.465 372.66 267.592 375.577C260.718 378.493 257.302 387.449 257.302 387.449C246.762 378.534 229.558 351.748 229.558 351.748C230.224 369.994 234.348 383.033 234.348 383.033C234.348 383.033 238.722 392.073 256.927 416.901C275.132 441.73 285.796 438.272 292.003 442.146C298.21 445.979 314.457 442.771 325.246 439.73C336.036 436.647 348.492 423.817 348.492 423.817L363.322 404.571L376.861 378.034L380.069 351.748C379.985 351.748 375.153 360.038 368.779 368.536ZM341.993 410.444C339.868 415.902 333.745 420.026 330.037 422.817C326.329 425.608 320.414 423.733 317.498 419.234C314.54 414.735 310.374 411.652 303.876 411.486C297.377 411.319 292.253 418.151 292.253 418.151C292.253 418.151 288.087 427.149 278.214 422.067C268.341 416.985 265.634 405.612 264.384 399.863C263.134 394.114 271.341 385.908 271.341 385.908L286.963 383.033L298.377 383.2L304.626 385.325L310.958 383.033L319.123 383.575L336.577 385.908C336.577 385.908 342.701 387.907 344.201 394.239C345.576 400.571 344.118 404.987 341.993 410.444Z" fill="white"/>
<path d="M658.886 441.436C732.162 385.49 694.295 287.76 694.295 287.76C683.797 260.224 655.886 255.266 655.886 255.266C655.886 255.266 643.306 237.936 608.146 243.685C572.987 249.434 551.949 265.472 540.827 295.633C540.827 295.633 508.416 393.655 578.069 440.02" stroke="#1C75BC" stroke-width="4.00949" stroke-miterlimit="10" stroke-linejoin="round"/>
<path d="M266.507 234.648C266.507 234.648 284.837 258.602 323.537 252.52C323.537 252.52 310.165 249.062 302.875 244.604C302.875 244.604 338.409 254.019 356.28 233.857C356.28 233.857 357.447 245.979 365.528 253.394C373.61 260.809 375.776 278.014 375.776 287.762C375.776 297.51 373.943 321.88 373.943 321.88H381.733C381.733 321.88 381.817 316.256 384.108 312.174C387.316 306.384 388.982 299.885 389.732 293.344C391.273 280.014 392.106 259.81 387.191 239.647C387.191 239.647 368.694 194.031 316.122 190.699C263.549 187.408 244.22 214.152 242.054 220.609C242.054 220.609 231.306 219.443 225.515 229.358C219.725 239.272 214.434 275.765 221.225 296.802C227.473 316.215 228.181 320.006 228.181 320.006H234.472C234.472 320.006 228.181 296.969 242.387 283.222C242.387 283.222 231.139 259.435 244.053 243.23C253.093 231.857 266.507 234.648 266.507 234.648Z" stroke="#1C75BC" stroke-width="4.00949" stroke-miterlimit="10" stroke-linejoin="round"/>
<path d="M224.307 306.55C224.307 306.55 221.432 300.426 214.184 302.967C206.935 305.508 206.185 320.922 212.351 336.71C218.516 352.499 224.682 369.204 232.138 368.495" stroke="#1C75BC" stroke-width="4.00949" stroke-miterlimit="10" stroke-linejoin="round"/>
<path d="M296.628 369.79C296.628 369.79 280.256 371.748 270.175 374.622C260.093 377.497 257.219 387.495 257.219 387.495C257.219 387.495 229.6 359.292 229.475 347.753" stroke="#1C75BC" stroke-width="4.00949" stroke-miterlimit="10" stroke-linejoin="round"/>
<path d="M388.314 303.304C389.938 302.387 392.229 301.887 395.312 302.971C402.561 305.512 403.31 320.925 397.145 336.714C390.98 352.502 384.814 369.207 377.357 368.499" stroke="#1C75BC" stroke-width="4.00949" stroke-miterlimit="10" stroke-linejoin="round"/>
<path d="M381.36 320.007C381.36 320.007 380.11 358.332 377.36 375.579C374.361 394.2 348.7 422.736 341.035 430.401C328.329 443.107 305.042 443.44 305.042 443.44H304.5C304.5 443.44 281.213 443.107 268.508 430.401C260.884 422.777 235.181 394.2 232.182 375.579C229.391 358.291 228.183 320.007 228.183 320.007" stroke="#1C75BC" stroke-width="4.00949" stroke-miterlimit="10" stroke-linejoin="round"/>
<path d="M325.034 359.997C325.034 359.997 326.659 366.537 318.327 367.37C311.495 368.037 312.87 373.535 304.955 373.535C297.04 373.535 297.956 368.078 291.166 367.37C282.834 366.537 284.459 359.997 284.459 359.997" stroke="#1C75BC" stroke-width="4.00949" stroke-miterlimit="10" stroke-linejoin="round"/>
<path d="M337.574 385.495C337.574 385.495 324.16 384.246 316.578 383.246C308.996 382.246 304.789 385.495 304.789 385.495C304.789 385.495 300.581 382.246 293 383.246C285.418 384.246 272.004 385.495 272.004 385.495C272.004 385.495 290.625 393.41 304.539 393.619C316.786 393.785 337.574 385.495 337.574 385.495Z" stroke="#1C75BC" stroke-width="4.00949" stroke-miterlimit="10" stroke-linejoin="round"/>
<path d="M337.573 385.488C337.573 385.488 330.242 403.026 305.038 403.026H304.497C279.294 403.026 271.962 385.488 271.962 385.488" stroke="#1C75BC" stroke-width="4.00949" stroke-miterlimit="10" stroke-linejoin="round"/>
<path d="M312.871 369.79C312.871 369.79 329.243 371.748 339.324 374.622C349.405 377.497 352.28 387.495 352.28 387.495C352.28 387.495 379.899 359.292 380.024 347.753" stroke="#1C75BC" stroke-width="4.00949" stroke-miterlimit="10" stroke-linejoin="round"/>
<path d="M337.574 385.488C337.574 385.488 341.739 388.945 344.656 395.486C347.572 402.026 339.115 423.022 325.159 423.855C321.452 424.063 318.994 421.564 317.411 418.773C314.912 414.357 310.329 411.441 305.247 411.441H304.247C299.165 411.441 294.582 414.315 292.083 418.773C290.5 421.564 288.042 424.063 284.334 423.855C270.379 423.022 261.922 402.026 264.838 395.486C267.755 388.945 271.92 385.488 271.92 385.488" stroke="#1C75BC" stroke-width="4.00949" stroke-miterlimit="10" stroke-linejoin="round"/>
<path d="M298.209 323.751C298.501 321.918 297.918 320.044 296.584 318.752C293.252 315.586 285.503 310.087 271.673 310.087C263.216 310.087 256.176 310.587 250.927 311.171C245.095 311.795 241.012 317.169 241.971 322.96L243.179 330.125C244.262 336.624 249.136 341.831 255.551 343.331C261.758 344.747 270.173 345.913 279.171 344.914C286.128 344.164 292.252 339.915 295.21 333.583C296.501 330.833 297.626 327.584 298.209 323.751Z" stroke="#1C75BC" stroke-width="4.00949" stroke-miterlimit="10" stroke-linejoin="round"/>
<path d="M310.951 323.751C310.66 321.918 311.243 320.044 312.576 318.752C315.909 315.586 323.657 310.087 337.488 310.087C345.944 310.087 352.984 310.587 358.233 311.171C364.066 311.795 368.148 317.169 367.19 322.96L365.982 330.125C364.899 336.624 360.025 341.831 353.609 343.331C347.402 344.747 338.987 345.913 329.989 344.914C323.032 344.164 316.908 339.915 313.951 333.583C312.659 330.833 311.535 327.584 310.951 323.751Z" stroke="#1C75BC" stroke-width="4.00949" stroke-miterlimit="10" stroke-linejoin="round"/>
<path d="M310.871 321.832C307.164 319.332 302.331 319.249 298.541 321.624L298.249 321.832" stroke="#1C75BC" stroke-width="4.00949" stroke-miterlimit="10" stroke-linejoin="round"/>
<path d="M216.1 319.338C216.1 319.338 226.056 320.588 228.639 331.378" stroke="#1C75BC" stroke-width="4.00949" stroke-miterlimit="10" stroke-linejoin="round"/>
<path d="M393.355 319.338C393.355 319.338 383.398 320.588 380.815 331.378" stroke="#1C75BC" stroke-width="4.00949" stroke-miterlimit="10" stroke-linejoin="round"/>
<path d="M286.876 323.131C286.876 323.131 280.544 318.59 271.546 318.59C262.506 318.59 254.133 323.131 254.133 323.131" stroke="#1C75BC" stroke-width="4.00949" stroke-miterlimit="10" stroke-linejoin="round"/>
<path d="M272.839 329.707C275.761 329.707 278.13 327.338 278.13 324.417C278.13 321.495 275.761 319.126 272.839 319.126C269.918 319.126 267.549 321.495 267.549 324.417C267.549 327.338 269.918 329.707 272.839 329.707Z" fill="#1C75BC"/>
<path d="M322.617 323.131C322.617 323.131 328.949 318.59 337.947 318.59C346.987 318.59 355.36 323.131 355.36 323.131" stroke="#1C75BC" stroke-width="4.00949" stroke-miterlimit="10" stroke-linejoin="round"/>
<path d="M336.662 329.707C339.584 329.707 341.952 327.338 341.952 324.417C341.952 321.495 339.584 319.126 336.662 319.126C333.74 319.126 331.371 321.495 331.371 324.417C331.371 327.338 333.74 329.707 336.662 329.707Z" fill="#1C75BC"/>
<path d="M320.12 306.754C320.12 306.754 331.993 298.505 346.406 300.255C355.571 301.338 359.904 304.462 359.904 304.462" stroke="#1C75BC" stroke-width="4.00949" stroke-miterlimit="10" stroke-linejoin="round"/>
<path d="M301.705 362.451C301.705 362.451 301.705 346.912 301.705 336.039C301.705 313.71 289.207 306.754 289.207 306.754C289.207 306.754 277.335 298.505 262.921 300.255C253.756 301.338 249.424 304.462 249.424 304.462" stroke="#1C75BC" stroke-width="4.00949" stroke-miterlimit="10" stroke-linejoin="round"/>
<path d="M245.638 403.031V423.818" stroke="#1C75BC" stroke-width="4.00949" stroke-miterlimit="10" stroke-linejoin="round"/>
<path d="M286.254 469.06L245.637 423.861C235.472 432.984 231.973 447.481 236.889 460.228L254.177 505.303C254.135 505.261 266.091 482.057 286.254 469.06Z" stroke="#1C75BC" stroke-width="4.00949" stroke-miterlimit="10" stroke-linejoin="round"/>
<path d="M363.281 403.031V423.818" stroke="#1C75BC" stroke-width="4.00949" stroke-miterlimit="10" stroke-linejoin="round"/>
<path d="M322.619 469.06L363.236 423.861C373.4 432.984 376.9 447.481 371.984 460.228L354.696 505.303C354.738 505.261 342.823 482.057 322.619 469.06Z" stroke="#1C75BC" stroke-width="4.00949" stroke-miterlimit="10" stroke-linejoin="round"/>
<path d="M779.442 988.449C779.442 943.042 765.486 868.057 765.486 868.057C759.154 829.94 747.698 798.863 747.698 798.863" stroke="#1C75BC" stroke-width="4.00949" stroke-miterlimit="10" stroke-linejoin="round"/>
<path d="M235.054 443.482C235.054 443.482 143.031 492.764 129.742 499.763C129.742 499.763 99.7483 509.427 90.8334 533.131C90.8334 533.131 57.7985 640.692 52.8828 693.14C36.3029 869.354 45.7593 988.454 45.7593 988.454" stroke="#1C75BC" stroke-width="4.00949" stroke-miterlimit="10" stroke-linejoin="round"/>
<path d="M237.266 435.561C237.266 435.561 202.481 474.344 210.021 629.896" stroke="#1C75BC" stroke-width="4.00949" stroke-miterlimit="10" stroke-linejoin="round"/>
<path d="M210.02 664.765C219.89 664.765 227.891 656.763 227.891 646.893C227.891 637.023 219.89 629.022 210.02 629.022C200.15 629.022 192.148 637.023 192.148 646.893C192.148 656.763 200.15 664.765 210.02 664.765Z" stroke="#1C75BC" stroke-width="4.00949" stroke-miterlimit="10" stroke-linejoin="round"/>
<path d="M210.02 655.853C214.966 655.853 218.976 651.842 218.976 646.896C218.976 641.949 214.966 637.939 210.02 637.939C205.073 637.939 201.063 641.949 201.063 646.896C201.063 651.842 205.073 655.853 210.02 655.853Z" stroke="#1C75BC" stroke-width="4.00949" stroke-miterlimit="10" stroke-linejoin="round"/>
<path d="M254.133 505.255L264.131 614.983C264.131 614.983 268.797 671.513 268.797 706.505C268.797 741.498 265.381 979.533 265.381 979.533" stroke="#1C75BC" stroke-width="4.00949" stroke-miterlimit="10" stroke-linejoin="round"/>
<path d="M354.487 505.255L344.489 614.983C344.489 614.983 339.823 671.513 339.823 706.505C339.823 741.498 343.239 979.533 343.239 979.533" stroke="#1C75BC" stroke-width="4.00949" stroke-miterlimit="10" stroke-linejoin="round"/>
<path d="M419.828 652.52C422.109 650.054 422.314 646.535 420.286 644.66C418.259 642.786 414.767 643.266 412.487 645.733C410.206 648.199 410.001 651.718 412.028 653.592C414.055 655.467 417.548 654.987 419.828 652.52Z" stroke="#1C75BC" stroke-width="4.00949" stroke-miterlimit="10" stroke-linejoin="round"/>
<path d="M381.235 645.644L370.487 635.646C365.488 630.98 362.655 624.44 362.738 617.608L363.613 533.875L361.905 511.921C361.53 507.006 363.947 502.298 368.237 499.84C373.445 496.841 381.901 493.55 394.732 492.675C407.604 492.55 416.311 495.175 421.726 497.757C426.184 499.882 428.933 504.381 428.933 509.297V531.292L436.265 614.734C436.848 621.565 434.557 628.314 429.933 633.313L419.977 644.103" stroke="#1C75BC" stroke-width="4.00949" stroke-miterlimit="10" stroke-linejoin="round"/>
<path d="M390.037 654.436C391.914 652.411 391.437 648.918 388.974 646.635C386.51 644.352 382.991 644.143 381.115 646.168C379.238 648.193 379.714 651.685 382.178 653.968C384.642 656.252 388.16 656.461 390.037 654.436Z" stroke="#1C75BC" stroke-width="4.00949" stroke-miterlimit="10" stroke-linejoin="round"/>
<path d="M371.397 435.561C371.397 435.561 383.645 449.183 392.018 492.674" stroke="#1C75BC" stroke-width="4.00949" stroke-miterlimit="10" stroke-linejoin="round"/>
<path d="M322.62 469.056C322.62 469.056 310.914 461.225 286.252 469.056" stroke="#1C75BC" stroke-width="4.00949" stroke-miterlimit="10" stroke-linejoin="round"/>
<path d="M332.368 476.012C332.368 476.012 325.077 490.968 313.83 503.798C313.83 503.798 308.997 504.548 304.748 504.423C300.499 504.548 295.667 503.798 295.667 503.798C284.419 490.968 277.129 476.012 277.129 476.012" stroke="#1C75BC" stroke-width="4.00949" stroke-miterlimit="10" stroke-linejoin="round"/>
<path d="M295.665 503.797C295.665 503.797 285.709 538.915 284.543 561.535C283.376 584.155 276.336 879.97 276.336 879.97L304.33 915.754L332.324 879.97C332.324 879.97 325.284 584.114 324.118 561.535C322.951 538.956 312.995 503.797 312.995 503.797" stroke="#1C75BC" stroke-width="4.00949" stroke-miterlimit="10" stroke-linejoin="round"/>
<path d="M213.935 454.768C213.935 454.768 186.108 490.052 174.943 510.631L228.141 531.627L201.063 564.204C201.063 564.204 239.222 583.866 245.346 606.82C251.469 629.773 268.799 694.927 268.799 694.927" stroke="#1C75BC" stroke-width="4.00949" stroke-miterlimit="10" stroke-linejoin="round"/>
<path d="M391.313 449.937C391.313 449.937 422.515 490.053 433.638 510.591L380.441 531.586L407.518 564.163C407.518 564.163 369.359 583.826 363.236 606.78C357.112 629.733 339.782 694.886 339.782 694.886" stroke="#1C75BC" stroke-width="4.00949" stroke-miterlimit="10" stroke-linejoin="round"/>
<path d="M375.275 441.434C375.275 441.434 464.799 488.883 477.213 495.506C489.627 502.13 517.621 522.667 528.411 545.871C528.411 545.871 581.608 659.181 592.023 681.385C602.479 703.589 617.143 735.249 617.476 759.203C617.476 759.203 623.85 780.573 611.102 805.152C598.355 829.73 523.703 934.958 523.703 934.958C523.703 934.958 493.085 922.211 450.677 875.97L512.789 778.324C512.789 778.324 501.625 773.7 506.749 754.745C506.749 754.745 492.46 747.788 492.168 732.5L470.798 714.253L477.213 836.478" stroke="#1C75BC" stroke-width="4.00949" stroke-miterlimit="10" stroke-linejoin="round"/>
<path d="M486.752 938.339C486.752 938.339 489.002 969.458 490.168 988.079" stroke="#1C75BC" stroke-width="4.00949" stroke-miterlimit="10" stroke-linejoin="round"/>
<path d="M108.498 548.834C108.498 548.834 131.618 636.983 139.45 679.682L123.703 988.494" stroke="#1C75BC" stroke-width="4.00949" stroke-miterlimit="10" stroke-linejoin="round"/>
<path d="M495.044 558.079C495.044 558.079 473.382 625.898 469.841 657.517L470.757 714.255" stroke="#1C75BC" stroke-width="4.00949" stroke-miterlimit="10" stroke-linejoin="round"/>
<path d="M456.008 883.681C456.008 883.681 443.427 888.846 434.054 891.346C424.681 893.804 416.766 899.719 412.35 907.384C407.893 915.049 393.188 940.211 393.188 940.211L417.058 939.461L479.253 938.544C485.169 938.794 490.793 936.045 494.292 931.254L501.665 921.714" stroke="#1C75BC" stroke-width="4.00949" stroke-miterlimit="10" stroke-linejoin="round"/>
<path d="M680.051 342.745C680.051 342.745 680.967 379.321 676.968 395.859C672.969 412.398 644.391 448.14 619.105 448.14C593.818 448.14 565.241 412.398 561.242 395.859C557.242 379.321 558.159 342.745 558.159 342.745" stroke="#1C75BC" stroke-width="4.00949" stroke-miterlimit="10" stroke-linejoin="round"/>
<path d="M571.819 464.1C571.819 464.1 552.698 466.224 536.576 483.179L488.086 502.258" stroke="#1C75BC" stroke-width="4.00949" stroke-miterlimit="10" stroke-linejoin="round"/>
<path d="M665.469 464.1C665.469 464.1 684.59 466.224 700.712 483.179L749.202 502.258C749.202 502.258 776.863 512.256 784.153 526.795C791.401 541.334 806.773 570.661 812.939 650.062C819.146 729.462 818.854 771.162 790.61 798.073C790.61 798.073 735.454 801.031 695.338 795.657C655.221 790.283 630.809 783.826 619.062 784.076" stroke="#1C75BC" stroke-width="4.00949" stroke-miterlimit="10" stroke-linejoin="round"/>
<path d="M760.197 692.55L780.235 701.756C780.235 701.756 776.486 708.088 768.112 706.13C759.781 704.13 748.075 700.59 748.075 700.59H691.253C691.253 700.59 719.872 665.138 724.496 660.514C729.12 655.89 739.91 653.224 748.741 651.308C758.614 649.142 772.861 647.642 772.861 647.642C772.861 647.642 773.32 655.765 762.572 659.015C751.824 662.264 740.118 667.93 733.619 672.304C733.619 672.304 746.617 667.596 752.449 667.596C758.281 667.596 789.441 667.596 789.441 667.596C789.441 667.596 788.067 677.261 778.402 677.719C768.737 678.178 744.992 681.219 744.992 681.219C744.992 681.219 771.028 682.302 773.32 682.76C775.611 683.218 786.359 688.175 786.359 688.175C786.359 688.175 785.65 697.007 772.195 693.549L749.033 691.758" stroke="#1C75BC" stroke-width="4.00949" stroke-miterlimit="10" stroke-linejoin="round"/>
<path d="M697.961 700.588H602.022" stroke="#1C75BC" stroke-width="4.00949" stroke-miterlimit="10" stroke-linejoin="round"/>
<path d="M536.534 483.179L514.622 525.629L554.447 532.294C554.447 532.294 545.491 543.125 546.157 560.039C546.157 560.039 606.228 598.322 619.101 616.485C631.973 634.648 628.474 700.551 628.474 700.551" stroke="#1C75BC" stroke-width="4.00949" stroke-miterlimit="10" stroke-linejoin="round"/>
<path d="M700.834 483.179L722.747 525.629L682.921 532.294C682.921 532.294 691.878 543.125 691.211 560.039C691.211 560.039 632.348 597.572 618.684 615.944C618.56 616.11 618.435 616.319 618.31 616.485" stroke="#1C75BC" stroke-width="4.00949" stroke-miterlimit="10" stroke-linejoin="round"/>
<path d="M571.82 464.1C571.82 464.1 565.904 486.178 582.651 513.09C599.397 540.001 621.559 586.7 624.975 608.987" stroke="#1C75BC" stroke-width="4.00949" stroke-miterlimit="10" stroke-linejoin="round"/>
<path d="M666.171 464.1C666.171 464.1 672.087 486.178 655.34 513.09C638.594 540.001 624.763 572.036 621.306 594.323" stroke="#1C75BC" stroke-width="4.00949" stroke-miterlimit="10" stroke-linejoin="round"/>
<path d="M655.301 513.129C655.301 513.129 624.682 534.458 582.649 513.129" stroke="#1C75BC" stroke-width="4.00949" stroke-miterlimit="10" stroke-linejoin="round"/>
<path d="M662.554 499.594C662.554 499.594 625.853 525.172 575.405 499.594" stroke="#1C75BC" stroke-width="4.00949" stroke-miterlimit="10" stroke-linejoin="round"/>
<path d="M680.129 346.083C680.129 346.083 681.171 340.75 675.505 333.002C669.881 325.254 648.219 313.964 644.22 290.677C644.22 290.677 629.765 321.879 588.731 325.378C567.402 327.211 558.154 335.418 558.154 343.958" stroke="#1C75BC" stroke-width="4.00949" stroke-miterlimit="10" stroke-linejoin="round"/>
<path d="M618.726 413.404C632.14 413.404 643.929 404.572 643.929 404.572C643.929 404.572 631.474 407.738 626.433 406.489C621.392 405.239 618.726 406.489 618.726 406.489H618.31C618.31 406.489 615.644 405.239 610.603 406.489C605.562 407.738 593.106 404.572 593.106 404.572C593.106 404.572 604.896 413.404 618.31 413.404H618.726Z" stroke="#1C75BC" stroke-width="4.00949" stroke-miterlimit="10" stroke-linejoin="round"/>
<path d="M643.929 404.572C643.929 404.572 636.056 422.277 618.726 422.277H618.309C601.021 422.277 593.064 404.572 593.064 404.572" stroke="#1C75BC" stroke-width="4.00949" stroke-miterlimit="10" stroke-linejoin="round"/>
<path d="M629.764 348.668C629.764 348.668 640.553 342.127 653.967 342.127C663.132 342.127 670.005 349.626 670.005 349.626" stroke="#1C75BC" stroke-width="4.00949" stroke-miterlimit="10" stroke-linejoin="round"/>
<path d="M567.026 349.705C567.026 349.705 574.067 341.999 583.44 341.999C590.688 341.999 596.479 343.415 600.353 344.748C600.936 344.956 601.603 345.248 602.269 345.623C609.976 349.747 614.6 357.995 614.6 366.743V383.365" stroke="#1C75BC" stroke-width="4.00949" stroke-miterlimit="10" stroke-linejoin="round"/>
<path d="M599.853 358.042C599.853 358.042 589.355 346.086 574.399 358.875" stroke="#1C75BC" stroke-width="4.00949" stroke-miterlimit="10" stroke-linejoin="round"/>
<path d="M588.358 362.788C590.981 362.788 593.107 360.661 593.107 358.039C593.107 355.416 590.981 353.29 588.358 353.29C585.736 353.29 583.609 355.416 583.609 358.039C583.609 360.661 585.736 362.788 588.358 362.788Z" fill="#1C75BC"/>
<path d="M639.265 358.035C639.265 358.035 649.554 346.829 662.51 358.035" stroke="#1C75BC" stroke-width="4.00949" stroke-miterlimit="10" stroke-linejoin="round"/>
<path d="M650.805 362.788C653.427 362.788 655.554 360.661 655.554 358.039C655.554 355.416 653.427 353.29 650.805 353.29C648.182 353.29 646.056 355.416 646.056 358.039C646.056 360.661 648.182 362.788 650.805 362.788Z" fill="#1C75BC"/>
<path d="M634.137 383.364C633.304 388.697 627.764 389.113 627.764 389.113C627.764 389.113 625.014 391.321 623.515 392.487C623.306 392.654 622.973 392.904 622.598 393.154C620.057 394.904 616.933 394.904 614.35 393.154C613.975 392.904 613.642 392.696 613.433 392.487C611.934 391.363 609.184 389.113 609.184 389.113C609.184 389.113 603.685 388.697 602.811 383.364" stroke="#1C75BC" stroke-width="4.00949" stroke-miterlimit="10" stroke-linejoin="round"/>
<path d="M628.892 829.025V969.038" stroke="#1C75BC" stroke-width="4.00949" stroke-miterlimit="10" stroke-linejoin="round"/>
<path d="M747.7 869.348H676.881V883.679H740.368" stroke="#1C75BC" stroke-width="4.00949" stroke-miterlimit="10" stroke-linejoin="round"/>
<path d="M578.108 423.816C578.108 423.816 580.274 451.144 570.817 469.015" stroke="#1C75BC" stroke-width="4.00949" stroke-miterlimit="10" stroke-linejoin="round"/>
<path d="M658.882 425.273C658.882 425.273 657.674 451.101 667.13 468.973" stroke="#1C75BC" stroke-width="4.00949" stroke-miterlimit="10" stroke-linejoin="round"/>
<path d="M558.032 349.625C558.032 349.625 551.991 343.626 546.742 349.625C538.661 358.831 550.408 384.076 559.865 388.325" stroke="#1C75BC" stroke-width="4.00949" stroke-miterlimit="10" stroke-linejoin="round"/>
<path d="M680.131 422.272C680.131 422.272 697.961 441.435 693.628 476.761" stroke="#1C75BC" stroke-width="4.00949" stroke-miterlimit="10" stroke-linejoin="round"/>
<path d="M551.403 355.534C551.403 355.534 558.152 357.201 558.152 363.616" stroke="#1C75BC" stroke-width="4.00949" stroke-miterlimit="10" stroke-linejoin="round"/>
<path d="M680.297 349.625C680.297 349.625 686.337 343.626 691.586 349.625C699.668 358.831 687.92 384.076 678.464 388.325" stroke="#1C75BC" stroke-width="4.00949" stroke-miterlimit="10" stroke-linejoin="round"/>
<path d="M686.921 355.534C686.921 355.534 680.173 357.201 680.173 363.616" stroke="#1C75BC" stroke-width="4.00949" stroke-miterlimit="10" stroke-linejoin="round"/>
<path d="M506.751 754.748C506.751 754.748 525.539 739.251 560.782 748.791" stroke="#1C75BC" stroke-width="4.00949" stroke-miterlimit="10" stroke-linejoin="round"/>
<path d="M754.573 556.249C754.573 556.249 743.033 575.453 740.367 594.366C737.701 613.321 737.701 654.062 737.701 654.062" stroke="#1C75BC" stroke-width="4.00949" stroke-miterlimit="10" stroke-linejoin="round"/>
<path d="M757.697 703.387C757.697 703.387 778.485 707.095 789.441 732.465" stroke="#1C75BC" stroke-width="4.00949" stroke-miterlimit="10" stroke-linejoin="round"/>
<path d="M85.2939 817.029C85.2939 817.029 130.785 848.689 128.577 892.597" stroke="#1C75BC" stroke-width="4.00949" stroke-miterlimit="10" stroke-linejoin="round"/>
<path d="M486.753 938.339L373.817 940.63" stroke="#1C75BC" stroke-width="4.00949" stroke-miterlimit="10" stroke-linejoin="round"/>
</g>
</svg>
